# xmcd
#
# Track frame offsets:
#	150
#	11929
#	22634
#	31366
#	43086
#	55314
#	65775
#	77463
#	92411
#	103518
#	118513
#	125630
#	136992
#	150575
#	161301
#
# Disc length: 2275 seconds
#
# Revision: 4052546849
# Processed by: cddbd v1.5.2PL0 Copyright (c) Steve Scherf et al.
# Submitted via: EZCDAudioConverter 8.0.2.1
#
DISCID=b608e10f
DTITLE=Various Artist - More Of Country's Most Wanted
DYEAR=1998
DGENRE=Country
TTITLE0=Willie Nelson - Night Life
TTITLE1=Jerry Wallace - Primrose Lane
TTITLE2=Patsy Cline - Come on in
TTITLE3=Cowboy Copas - Memories of You
TTITLE4=Alabama - Loving You Is Killing Me
TTITLE5=Ray Price - Little Miss Blue Eyes
TTITLE6=Kenny Rogers - Elvira
TTITLE7=Willie Nelson - Face of a Fighter
TTITLE8=Ferlin Husky - San Antonio Rose
TTITLE9=Donna Fargo - That Was Yesterday
TTITLE10=Buck Owens - You're for Me
TTITLE11=Lynn Anderson - Listen to a Country Song
TTITLE12=Patsy Cline - Life's Railway to Heaven
TTITLE13=Skeeter Davis - Gonna Get Along Without You Now
TTITLE14=Roy Drusky - Second Hand Rose
EXTD=
EXTT0=
EXTT1=
EXTT2=
EXTT3=
EXTT4=
EXTT5=
EXTT6=
EXTT7=
EXTT8=
EXTT9=
EXTT10=
EXTT11=
EXTT12=
EXTT13=
EXTT14=
PLAYORDER=
